<svg width="34" height="58" viewBox="0 0 34 58" fill="none" xmlns="http://www.w3.org/2000/svg">
<path d="M23.8803 57.129C26.5806 56.841 30.2078 56.3743 32.7895 55.6396M32.7895 55.6396C33.0869 55.5551 31.8208 53.6097 31.7548 53.5249C30.31 51.6645 28.666 50.0502 26.9552 48.4409M32.7895 55.6396C18.1299 53.9458 7.5495 43.4261 7.30868 32.9081C7.2848 31.8656 7.25991 30.731 7.33611 29.599M7.33611 29.599C7.45745 27.7963 7.83518 26.0005 8.88166 24.5947C9.84751 23.2973 11.6522 22.014 13.3311 22.2267C16.4672 22.6242 17.3714 26.7183 15.2418 28.8972C13.3705 30.8121 9.44143 31.2064 7.33611 29.599ZM7.33611 29.599C7.2917 29.5651 7.2481 29.5303 7.20535 29.4946C-3.11275 20.88 2.81633 6.23048 12.4968 1.00801" stroke="#A6D8D2" stroke-width="1.6749" stroke-miterlimit="1.5" stroke-linecap="round" stroke-linejoin="round"/>
</svg>
